<svg viewBox="0 0 537 338" fill="none" xmlns="http://www.w3.org/2000/svg">
<mask id="mask0_605_2205" style="mask-type:luminance" maskUnits="userSpaceOnUse" x="81" y="0" width="339" height="338">
<mask id="mask1_605_2205" style="mask-type:luminance" maskUnits="userSpaceOnUse" x="0" y="0" width="537" height="338">
<path d="M537 0H0V338H537V0Z" fill="white"/>
</mask>
<g mask="url(#mask1_605_2205)">
<path d="M250.62 337.88C157.34 337.88 81.7002 262.25 81.7002 168.95C81.7002 75.64 157.34 0 250.62 0C343.94 0 419.58 75.65 419.58 168.95C419.58 262.25 343.93 337.88 250.62 337.88Z" fill="white"/>
</g>
</mask>
<g mask="url(#mask0_605_2205)">
<path d="M424.58 -5H76.7002V342.88H424.58V-5Z" fill="#C30000"/>
</g>
<mask id="mask2_605_2205" style="mask-type:luminance" maskUnits="userSpaceOnUse" x="0" y="157" width="68" height="86">
<mask id="mask3_605_2205" style="mask-type:luminance" maskUnits="userSpaceOnUse" x="0" y="0" width="537" height="338">
<path d="M537 0H0V338H537V0Z" fill="white"/>
</mask>
<g mask="url(#mask3_605_2205)">
<path d="M0 242.71L34.53 157.26H67.71L33.22 242.71H0Z" fill="white"/>
</g>
</mask>
<g mask="url(#mask2_605_2205)">
<path d="M72.71 152.26H-5V247.72H72.71V152.26Z" fill="#C30000"/>
</g>
<mask id="mask4_605_2205" style="mask-type:luminance" maskUnits="userSpaceOnUse" x="426" y="157" width="53" height="86">
<mask id="mask5_605_2205" style="mask-type:luminance" maskUnits="userSpaceOnUse" x="0" y="0" width="537" height="338">
<path d="M537 0H0V338H537V0Z" fill="white"/>
</mask>
<g mask="url(#mask5_605_2205)">
<path d="M426.09 242.71L460.18 157.26H478.26L444.18 242.71H426.09Z" fill="white"/>
</g>
</mask>
<g mask="url(#mask4_605_2205)">
<path d="M483.27 152.26H421.09V247.72H483.27V152.26Z" fill="#C30000"/>
</g>
<mask id="mask6_605_2205" style="mask-type:luminance" maskUnits="userSpaceOnUse" x="108" y="157" width="290" height="86">
<mask id="mask7_605_2205" style="mask-type:luminance" maskUnits="userSpaceOnUse" x="0" y="0" width="537" height="338">
<path d="M537 0H0V338H537V0Z" fill="white"/>
</mask>
<g mask="url(#mask7_605_2205)">
<path d="M394.72 157.26H364.69C364.69 157.26 362.62 157.26 361.89 159.09L345.27 209.97L328.66 159.09C327.93 157.26 325.85 157.26 325.85 157.26H268.1C266.85 157.26 265.8 158.3 265.8 159.55V176.83C265.8 163.12 251.22 157.27 242.68 157.27C223.56 157.27 210.75 169.87 206.77 189.02C206.55 176.32 205.5 171.76 202.08 167.1C200.51 164.82 198.24 162.9 195.76 161.31C190.67 158.33 186.09 157.27 176.26 157.27H164.72C164.72 157.27 162.63 157.27 161.9 159.1L151.4 185.13V159.56C151.4 158.32 150.36 157.27 149.11 157.27H122.4C122.4 157.27 120.34 157.27 119.59 159.1L108.67 186.16C108.67 186.16 107.58 188.87 110.07 188.87H120.34V240.44C120.34 241.72 121.35 242.73 122.63 242.73H149.11C150.36 242.73 151.4 241.72 151.4 240.44V188.87H161.72C167.64 188.87 168.9 189.03 171.2 190.11C172.59 190.63 173.84 191.69 174.52 192.92C175.92 195.55 176.27 198.7 176.27 208.01V240.45C176.27 241.73 177.3 242.74 178.57 242.74H203.95C203.95 242.74 206.82 242.74 207.95 239.91L213.57 226.01C221.05 236.48 233.36 242.74 248.65 242.74H251.99C251.99 242.74 254.88 242.74 256.02 239.91L265.81 215.65V240.44C265.81 241.72 266.86 242.73 268.11 242.73H294.01C294.01 242.73 296.87 242.73 298.02 239.9C298.02 239.9 308.38 214.18 308.42 213.98H308.44C308.84 211.84 306.13 211.84 306.13 211.84H296.88V167.7L325.97 239.89C327.11 242.72 329.97 242.72 329.97 242.72H360.57C360.57 242.72 363.45 242.72 364.59 239.89L396.84 160.03C397.95 157.26 394.72 157.26 394.72 157.26ZM265.8 211.83H248.4C241.47 211.83 235.84 206.22 235.84 199.29C235.84 192.37 241.47 186.72 248.4 186.72H253.27C260.18 186.72 265.8 192.36 265.8 199.29V211.83Z" fill="white"/>
</g>
</mask>
<g mask="url(#mask6_605_2205)">
<path d="M402.07 152.26H103.43V247.72H402.07V152.26Z" fill="#FCFCFC"/>
</g>
<path fill-rule="evenodd" clip-rule="evenodd" d="M493.08 242.72L527.28 157.24H536.92L502.72 242.72H493.08Z" fill="#C30000"/>
</svg>
