<svg xmlns="http://www.w3.org/2000/svg" viewBox="0 0 865.47 205.8">
  <path d="M103.05 142.63c-35.34 0-63.99-15.63-63.99-34.91s28.6-34.87 63.89-34.9V55.61c10.93 0 21.37 1.5 30.37 4.13L103.1 90.19v17.52l30.22-30.76c20.09 5.88 33.74 17.46 33.74 30.76 0 19.28-28.67 34.91-64.01 34.91M0 205.8h205.8V0H0v205.8Z"/>
  <path d="M278.22 145.34c-4.94 0-9.37-.55-13.32-1.67a31.21 31.21 0 0 1-10.18-4.84 21.61 21.61 0 0 1-6.56-7.85 25.46 25.46 0 0 1-2.51-10.61h16.97c.46 4.01 1.99 6.94 4.59 8.78 2.59 1.84 6.27 2.76 11 2.76 1.65 0 3.23-.16 4.74-.49 1.51-.33 2.86-.84 4.04-1.54a7.18 7.18 0 0 0 3.86-6.56c0-1.52-.38-2.9-1.15-3.95a8.78 8.78 0 0 0-3.3-2.66 29.43 29.43 0 0 0-5.33-1.94 218.5 218.5 0 0 0-7.1-1.72c-3.55-.79-6.91-1.67-10.07-2.66a31.3 31.3 0 0 1-8.29-3.9 17.57 17.57 0 0 1-5.58-6.12c-1.34-2.47-2.03-5.61-2.03-9.43s.72-7.11 2.17-9.87a19.21 19.21 0 0 1 6.03-6.86 27.11 27.11 0 0 1 9.08-4.05c3.49-.88 7.27-1.33 11.35-1.33s7.73.46 11.15 1.38c3.42.92 6.38 2.3 8.89 4.15 2.5 1.84 4.5 4.13 6.02 6.86a22.8 22.8 0 0 1 2.67 9.53h-16.48a9.83 9.83 0 0 0-3.95-6.71c-2.17-1.58-5.11-2.37-8.79-2.37-3.49 0-6.28.68-8.39 2.07-2.11 1.38-3.16 3.23-3.16 5.53 0 1.45.39 2.63 1.18 3.55.79.92 1.95 1.72 3.46 2.42 1.51.68 3.37 1.3 5.57 1.83 2.21.53 4.75 1.11 7.65 1.78a91.2 91.2 0 0 1 9.53 2.61 29.9 29.9 0 0 1 8.1 4.09 19.73 19.73 0 0 1 5.62 6.42c1.41 2.57 2.12 5.79 2.12 9.66s-.75 7.2-2.26 10.12a21.58 21.58 0 0 1-6.27 7.4 28.87 28.87 0 0 1-9.39 4.59 41.4 41.4 0 0 1-11.69 1.58"/>
  <path d="m336.95 120.66-5.23 5.42v17.48h-15.31V70.12h15.31v22.89a264.6 264.6 0 0 1-.5 16.89l17.27-18.85h17.97l-18.76 19.44 20.93 33.07h-17.97l-13.72-22.9Z"/>
  <path d="M393.3 134.78c3.49 0 6.27-.96 8.35-2.87a9.37 9.37 0 0 0 3.11-7.2v-6.81a14.81 14.81 0 0 1-4.09 1.72c-1.62.42-3.28.84-4.99 1.22-3.42.74-5.95 1.62-7.6 2.67-1.65 1.05-2.47 2.72-2.47 5.03s.76 3.92 2.28 4.84c1.51.92 3.32 1.38 5.42 1.38m13.03 8.78a9.89 9.89 0 0 1-1.09-2.51 19.23 19.23 0 0 1-.68-3.9h-.2a19.27 19.27 0 0 1-6.16 5.73c-2.41 1.37-5.65 2.07-9.73 2.07-2.57 0-4.95-.34-7.16-1.04-2.2-.68-4.11-1.7-5.73-3a13.38 13.38 0 0 1-3.75-4.99 16.9 16.9 0 0 1-1.33-6.86c0-2.9.55-5.29 1.63-7.2a13.16 13.16 0 0 1 4.4-4.65c1.84-1.18 4-2.09 6.5-2.71a61.8 61.8 0 0 1 8.1-1.43c4.67-.66 8.04-1.45 10.12-2.37 2.07-.92 3.11-2.37 3.11-4.34s-.62-3.44-1.87-4.58c-1.25-1.16-3.23-1.74-5.92-1.74-2.96 0-5.19.63-6.66 1.88a7.15 7.15 0 0 0-2.53 5.03h-14.31A16.4 16.4 0 0 1 379 94.84c1.91-1.62 4.3-2.9 7.2-3.86 2.9-.95 6.29-1.42 10.18-1.42 3.36 0 6.25.24 8.69.74 2.42.49 4.57 1.3 6.41 2.42a14.58 14.58 0 0 1 6.07 6.36 21.36 21.36 0 0 1 1.92 9.33v26.95c0 4.01.66 6.45 1.97 7.31v.88h-15.1Z"/>
  <path d="M426.37 91.05h7.9V74.27h15.2v16.78h10.25v9.87h-10.25v26.05c0 1.97.5 3.3 1.53 4 1.01.68 2.45 1.04 4.29 1.04.53 0 1.12-.03 1.78-.05.66-.04 1.25-.08 1.78-.14h.79v11.54c-.86.13-2.04.29-3.55.49-1.51.2-3.33.3-5.44.3-2.44 0-4.65-.21-6.65-.65a13.03 13.03 0 0 1-5.19-2.26 10.73 10.73 0 0 1-3.36-4.25c-.79-1.74-1.18-3.96-1.18-6.66v-29.41h-7.9v-9.87Z"/>
  <path d="M464.27 91.05h7.9V74.27h15.2v16.78h10.25v9.87h-10.25v26.05c0 1.97.5 3.3 1.53 4 1.01.68 2.45 1.04 4.29 1.04.53 0 1.12-.03 1.78-.05.66-.04 1.25-.08 1.78-.14h.79v11.54c-.86.13-2.04.29-3.55.49-1.51.2-3.33.3-5.44.3-2.44 0-4.65-.21-6.65-.65a13.03 13.03 0 0 1-5.19-2.26 10.73 10.73 0 0 1-3.36-4.25c-.79-1.74-1.18-3.96-1.18-6.66v-29.41h-7.9v-9.87Z"/>
  <path d="M530.2 100.53c-3.55 0-6.25 1.05-8.1 3.16-1.84 2.11-3.03 4.96-3.55 8.58h22.4c-.26-3.69-1.34-6.57-3.25-8.64a9.73 9.73 0 0 0-7.5-3.11m.79 44.61a30 30 0 0 1-11.54-2.12 25.46 25.46 0 0 1-8.74-5.88 25.84 25.84 0 0 1-5.53-8.78c-1.28-3.36-1.92-7-1.92-10.95s.66-7.62 1.97-11a26.7 26.7 0 0 1 5.53-8.83c2.37-2.5 5.2-4.46 8.49-5.87a27.35 27.35 0 0 1 10.95-2.12c3.75 0 7.12.58 10.12 1.76a26.16 26.16 0 0 1 7.94 4.94c2.96 2.91 5.13 6.49 6.52 10.77s2.04 9.02 1.97 14.2h-38.29c.53 3.95 1.84 7.04 3.95 9.28 2.09 2.24 5.03 3.36 8.78 3.36 2.44 0 4.42-.45 5.98-1.33a9.21 9.21 0 0 0 3.59-3.8h15.01c-.66 2.3-1.7 4.46-3.11 6.46a22.1 22.1 0 0 1-5.24 5.24 24.46 24.46 0 0 1-7.25 3.45 31.8 31.8 0 0 1-9.18 1.24"/>
  <path d="M589.02 100.53c-3.55 0-6.25 1.05-8.1 3.16-1.84 2.11-3.03 4.96-3.55 8.58h22.4c-.26-3.69-1.34-6.57-3.25-8.64a9.73 9.73 0 0 0-7.5-3.11m.79 44.61a30 30 0 0 1-11.54-2.12 25.46 25.46 0 0 1-8.74-5.88 25.84 25.84 0 0 1-5.53-8.78c-1.28-3.36-1.92-7-1.92-10.95s.66-7.62 1.97-11a26.7 26.7 0 0 1 5.53-8.83c2.37-2.5 5.2-4.46 8.49-5.87a27.35 27.35 0 0 1 10.95-2.12c3.75 0 7.12.58 10.11 1.76 3 1.2 5.65 2.84 7.95 4.94a26.11 26.11 0 0 1 6.52 10.77 44.15 44.15 0 0 1 1.97 14.2h-38.29c.53 3.95 1.84 7.04 3.95 9.28 2.09 2.24 5.03 3.36 8.78 3.36 2.44 0 4.42-.45 5.98-1.33a9.21 9.21 0 0 0 3.59-3.8h15.01c-.66 2.3-1.7 4.46-3.11 6.46a22.1 22.1 0 0 1-5.24 5.24 24.46 24.46 0 0 1-7.25 3.45 31.8 31.8 0 0 1-9.18 1.24"/>
  <path d="M619.33 91.05h7.9V74.27h15.2v16.78h10.25v9.87h-10.25v26.05c0 1.97.5 3.3 1.53 4 1.01.68 2.45 1.04 4.29 1.04.53 0 1.12-.03 1.78-.05.66-.04 1.25-.08 1.78-.14h.79v11.54c-.86.13-2.04.29-3.55.49-1.51.2-3.33.3-5.44.3-2.44 0-4.65-.21-6.65-.65a13.03 13.03 0 0 1-5.19-2.26 10.73 10.73 0 0 1-3.36-4.25c-.79-1.74-1.18-3.96-1.18-6.66v-29.41h-7.9v-9.87Z"/>
  <path d="M682.39 134.78c3.49 0 6.27-.96 8.35-2.87a9.37 9.37 0 0 0 3.11-7.2v-6.81a14.81 14.81 0 0 1-4.09 1.72c-1.62.42-3.28.84-4.99 1.22-3.42.74-5.95 1.62-7.6 2.67-1.65 1.05-2.47 2.72-2.47 5.03s.76 3.92 2.28 4.84c1.51.92 3.32 1.38 5.42 1.38m13.03 8.78a9.57 9.57 0 0 1-1.08-2.51 18.47 18.47 0 0 1-.7-3.9h-.2a19.27 19.27 0 0 1-6.16 5.73c-2.41 1.37-5.65 2.07-9.73 2.07-2.57 0-4.95-.34-7.16-1.04-2.2-.68-4.11-1.7-5.73-3a13.38 13.38 0 0 1-3.75-4.99 16.9 16.9 0 0 1-1.33-6.86c0-2.9.55-5.29 1.63-7.2a13.16 13.16 0 0 1 4.4-4.65c1.84-1.18 4-2.09 6.5-2.71a61.8 61.8 0 0 1 8.1-1.43c4.67-.66 8.04-1.45 10.12-2.37 2.07-.92 3.11-2.37 3.11-4.34s-.62-3.44-1.87-4.58c-1.25-1.16-3.23-1.74-5.92-1.74-2.96 0-5.19.63-6.66 1.88a7.15 7.15 0 0 0-2.53 5.03h-14.31a16.4 16.4 0 0 1 5.92-12.09c1.91-1.62 4.3-2.9 7.2-3.86 2.9-.95 6.29-1.42 10.18-1.42 3.36 0 6.25.24 8.69.74 2.42.49 4.57 1.3 6.41 2.42a14.58 14.58 0 0 1 6.07 6.36 21.22 21.22 0 0 1 1.94 9.33v26.95c0 4.01.65 6.45 1.96 7.31v.88h-15.1Z"/>
  <path d="M715.46 91.05h7.89V74.27h15.2v16.78h10.27v9.87h-10.27v26.05c0 1.97.51 3.3 1.54 4 1.01.68 2.45 1.04 4.29 1.04.53 0 1.12-.03 1.78-.05.66-.04 1.25-.08 1.78-.14h.79v11.54c-.86.13-2.05.29-3.55.49-1.53.2-3.33.3-5.44.3-2.44 0-4.65-.21-6.66-.65-2-.42-3.74-1.18-5.17-2.26a10.73 10.73 0 0 1-3.36-4.25 16.16 16.16 0 0 1-1.2-6.66v-29.41h-7.89v-9.87Z"/>
  <path d="M781.39 100.53c-3.55 0-6.25 1.05-8.1 3.16-1.84 2.11-3.03 4.96-3.55 8.58h22.4c-.26-3.69-1.34-6.57-3.25-8.64a9.73 9.73 0 0 0-7.5-3.11m.79 44.61c-4.28 0-8.14-.71-11.54-2.12a25.37 25.37 0 0 1-14.27-14.66c-1.28-3.36-1.92-7-1.92-10.95s.66-7.62 1.97-11a26.7 26.7 0 0 1 5.53-8.83c2.37-2.5 5.2-4.46 8.49-5.87a27.35 27.35 0 0 1 10.95-2.12c3.75 0 7.12.58 10.11 1.76 3 1.2 5.65 2.84 7.95 4.94a26.11 26.11 0 0 1 6.52 10.77 44.15 44.15 0 0 1 1.97 14.2h-38.29c.53 3.95 1.84 7.04 3.95 9.28 2.09 2.24 5.03 3.36 8.78 3.36 2.44 0 4.42-.45 5.98-1.33a9.21 9.21 0 0 0 3.59-3.8h15.01c-.66 2.3-1.7 4.46-3.11 6.46a22.1 22.1 0 0 1-5.24 5.24 24.46 24.46 0 0 1-7.25 3.45 31.8 31.8 0 0 1-9.18 1.24"/>
  <path d="M830.73 99.05h.3a16.93 16.93 0 0 1 6.56-7.11 18.93 18.93 0 0 1 9.64-2.37c5.78 0 10.27 1.76 13.47 5.28 3.19 3.53 4.78 8.25 4.78 14.16v34.55h-15.39v-31.59c0-2.9-.74-5.21-2.22-6.95-1.47-1.75-3.67-2.62-6.56-2.62a9.17 9.17 0 0 0-7.32 3.26c-1.83 2.16-2.75 4.92-2.75 8.28v29.62h-15.49V91.05h14.99v7.99Z"/>
</svg>
